<?xml version="1.0" standalone="yes"?>

<svg version="1.1" viewBox="0.0 0.0 351.0 113.0" fill="none" stroke="none" stroke-linecap="square" stroke-miterlimit="10" xmlns="http://www.w3.org/2000/svg" xmlns:xlink="http://www.w3.org/1999/xlink"><clipPath id="p.0"><path d="m0 0l720.0 0l0 540.0l-720.0 0l0 -540.0z" clip-rule="nonzero"></path></clipPath><g clip-path="url(#p.0)"><path fill="#000000" fill-opacity="0.0" d="m0 0l720.0 0l0 540.0l-720.0 0z" fill-rule="nonzero"></path><path fill="#56d7d4" d="m0 0l349.7638 0l0 111.84252l-349.7638 0z" fill-rule="nonzero"></path><path stroke="#56d7d4" stroke-width="2.0" stroke-linejoin="round" stroke-linecap="butt" d="m0 0l349.7638 0l0 111.84252l-349.7638 0z" fill-rule="nonzero"></path><path fill="#000000" fill-opacity="0.0" d="m64.66067 40.746246c0.031600952 4.8155518 -1.5167961 20.780617 0.18960571 28.893303c1.706398 8.112679 8.374001 16.485664 10.048798 19.782799" fill-rule="nonzero"></path><path stroke="#ffdaf7" stroke-width="4.0" stroke-linejoin="round" stroke-linecap="butt" d="m64.66067 40.746246c0.031600952 4.8155518 -1.5167961 20.780617 0.18960571 28.893303c1.706398 8.112679 8.374001 16.485664 10.048798 19.782799" fill-rule="nonzero"></path><path fill="#000000" fill-opacity="0.0" d="m64.009094 68.1498c-1.2080002 3.9480286 -6.040001 19.740166 -7.248001 23.688194" fill-rule="nonzero"></path><path stroke="#ffdaf7" stroke-width="4.0" stroke-linejoin="round" stroke-linecap="butt" d="m64.009094 68.1498c-1.2080002 3.9480286 -6.040001 19.740166 -7.248001 23.688194" fill-rule="nonzero"></path><path fill="#000000" fill-opacity="0.0" d="m51.844345 48.453896c1.9931984 1.4745636 7.429199 8.08633 11.959198 8.847397c4.529999 0.76106644 12.683998 -3.5674973 15.220802 -4.280998" fill-rule="nonzero"></path><path stroke="#ffdaf7" stroke-width="4.0" stroke-linejoin="round" stroke-linecap="butt" d="m51.844345 48.453896c1.9931984 1.4745636 7.429199 8.08633 11.959198 8.847397c4.529999 0.76106644 12.683998 -3.5674973 15.220802 -4.280998" fill-rule="nonzero"></path><path fill="#000000" fill-opacity="0.0" d="m318.42993 47.42907c0.48171997 4.9489822 3.105896 21.247429 2.8903198 29.693901c-0.21560669 8.446465 -3.4865112 17.487411 -4.1838074 20.984901" fill-rule="nonzero"></path><path stroke="#e177bc" stroke-width="4.0" stroke-linejoin="round" stroke-linecap="butt" d="m318.42993 47.42907c0.48171997 4.9489822 3.105896 21.247429 2.8903198 29.693901c-0.21560669 8.446465 -3.4865112 17.487411 -4.1838074 20.984901" fill-rule="nonzero"></path><path fill="#000000" fill-opacity="0.0" d="m321.45438 74.25505c1.5548401 3.7315521 7.77417 18.657753 9.32901 22.389305" fill-rule="nonzero"></path><path stroke="#e177bc" stroke-width="4.0" stroke-linejoin="round" stroke-linecap="butt" d="m321.45438 74.25505c1.5548401 3.7315521 7.77417 18.657753 9.32901 22.389305" fill-rule="nonzero"></path><path fill="#000000" fill-opacity="0.0" d="m330.95102 53.736847c-1.7127991 1.6393661 -6.1263733 8.646133 -10.276886 9.836201c-4.1505127 1.1900673 -12.188507 -2.246502 -14.62619 -2.6958008" fill-rule="nonzero"></path><path stroke="#e177bc" stroke-width="4.0" stroke-linejoin="round" stroke-linecap="butt" d="m330.95102 53.736847c-1.7127991 1.6393661 -6.1263733 8.646133 -10.276886 9.836201c-4.1505127 1.1900673 -12.188507 -2.246502 -14.62619 -2.6958008" fill-rule="nonzero"></path><path fill="#000000" fill-opacity="0.0" d="m35.976173 51.248573c-0.48356628 4.3622665 -3.113865 18.729515 -2.9014015 26.1736c0.2124672 7.444084 3.4801674 15.4090805 4.176201 18.490898" fill-rule="nonzero"></path><path stroke="#7381ff" stroke-width="4.0" stroke-linejoin="round" stroke-linecap="butt" d="m35.976173 51.248573c-0.48356628 4.3622665 -3.113865 18.729515 -2.9014015 26.1736c0.2124672 7.444084 3.4801674 15.4090805 4.176201 18.490898" fill-rule="nonzero"></path><path fill="#000000" fill-opacity="0.0" d="m32.846798 74.84814c-1.519865 3.3014297 -7.599331 16.507164 -9.119198 19.808594" fill-rule="nonzero"></path><path stroke="#7381ff" stroke-width="4.0" stroke-linejoin="round" stroke-linecap="butt" d="m32.846798 74.84814c-1.519865 3.3014297 -7.599331 16.507164 -9.119198 19.808594" fill-rule="nonzero"></path><path fill="#000000" fill-opacity="0.0" d="m23.45574 56.807396c1.7128162 1.4441833 6.126383 7.617317 10.276899 8.6651c4.1505165 1.0477829 12.188499 -1.9820023 14.626202 -2.3784027" fill-rule="nonzero"></path><path stroke="#7381ff" stroke-width="4.0" stroke-linejoin="round" stroke-linecap="butt" d="m23.45574 56.807396c1.7128162 1.4441833 6.126383 7.617317 10.276899 8.6651c4.1505165 1.0477829 12.188499 -1.9820023 14.626202 -2.3784027" fill-rule="nonzero"></path><path fill="#000000" fill-opacity="0.0" d="m78.703415 7.1076117l232.063 0.031496048l0 51.968506l-232.063 -0.031497955z" fill-rule="nonzero"></path><path fill="#ffffff" d="m107.62529 33.55841q-0.28125 -0.28128815 -1.03125 -0.76576614q-0.734375 -0.48447418 -1.796875 -0.93774414q-1.046875 -0.46889114 -2.296875 -0.7815609q-1.234375 -0.32829285 -2.515625 -0.32846642q-2.28125 -3.0899048E-4 -3.40625 0.8432884q-1.109375 0.8435974 -1.109375 2.3592224q0 0.875 0.40625 1.4688072q0.421875 0.5781822 1.21875 1.015789q0.8125 0.43761063 2.03125 0.79714966q1.21875 0.35954285 2.8125 0.76600647q2.078125 0.5627823 3.78125 1.20364q1.703125 0.6252327 2.875 1.5941391q1.1875 0.95328903 1.828125 2.297123q0.640625 1.3438377 0.640625 3.2969627q0 2.28125 -0.859375 3.9061356q-0.859375 1.6248817 -2.296875 2.6246872q-1.4375 0.99980545 -3.359375 1.4526672q-1.921875 0.4528656 -4.0 0.4525833q-3.203125 -4.348755E-4 -6.328125 -0.9539833q-3.109375 -0.95354843 -5.59375 -2.7195091l2.4375 -4.765293q0.359375 0.35942078 1.296875 0.9533005q0.9375 0.5782509 2.21875 1.1565514q1.28125 0.57829666 2.84375 0.9847603q1.5625 0.3908348 3.203125 0.39105988q4.5625 6.1798096E-4 4.5625 -2.921257q0 -0.953125 -0.53125 -1.5938225q-0.515625 -0.64069366 -1.484375 -1.1252022q-0.953125 -0.4845047 -2.3125 -0.8753128q-1.359375 -0.4064331 -3.03125 -0.844162q-2.046875 -0.5627785 -3.546875 -1.2192307q-1.5 -0.6564522 -2.5 -1.5315895q-1.0 -0.8907585 -1.5 -2.0939522q-0.5 -1.2031937 -0.5 -2.8438187q0 -2.15625 0.796875 -3.8280163q0.8125 -1.6873913 2.21875 -2.7965755q1.421875 -1.1248055 3.296875 -1.7026768q1.890625 -0.5778675 4.046875 -0.5775757q3.0 4.0626526E-4 5.515625 0.9382477q2.53125 0.93784523 4.40625 2.219349l-2.4375 4.484045zm19.599976 21.362034q-2.4375 -3.3187866E-4 -4.28125 -1.0943298q-1.84375 -1.1096268 -2.875 -3.000389l0 12.203125l-5.359375 -7.286072E-4l0 -29.46875l4.671875 6.3323975E-4l0 3.59375q1.15625 -1.8435936 3.0 -2.8902168q1.84375 -1.062252 4.234375 -1.0619278q2.125 2.89917E-4 3.921875 0.85990906q1.8125 0.85961914 3.109375 2.3129234q1.296875 1.4533005 2.03125 3.4377747q0.75 1.984478 0.75 4.187603q0 2.28125 -0.6875 4.2811546q-0.671875 1.9999084 -1.90625 3.4841156q-1.21875 1.468586 -2.921875 2.3121033q-1.6875 0.8435211 -3.6875 0.8432503zm-1.765625 -4.5627403q1.203125 1.6403198E-4 2.21875 -0.51532364q1.03125 -0.53110886 1.75 -1.4060097q0.71875 -0.87490463 1.109375 -2.0311012q0.40625 -1.1718216 0.40625 -2.4061966q0 -1.328125 -0.4375 -2.4688072q-0.4375 -1.140686 -1.21875 -1.968914q-0.78125 -0.8438568 -1.84375 -1.3283768q-1.0625 -0.48451996 -2.296875 -0.4846878q-0.765625 -1.02996826E-4 -1.5625 0.2654152q-0.796875 0.26551437 -1.484375 0.7497978q-0.671875 0.46865845 -1.21875 1.1092072q-0.53125 0.64055634 -0.8125 1.4061432l0 4.921875q0.71875 1.7969704 2.1875 2.9846687q1.484375 1.1720772 3.203125 1.1723099zm24.279984 4.565796q-2.515625 -3.3950806E-4 -4.5625 -0.859993q-2.03125 -0.85964966 -3.46875 -2.344223q-1.4375 -1.4845695 -2.21875 -3.4377975q-0.78125 -1.9688568 -0.78125 -4.125107q0 -2.234375 0.75 -4.218651q0.765625 -1.9842682 2.203125 -3.4840736q1.4375 -1.4998055 3.5 -2.374527q2.0625 -0.8747177 4.625 -0.8743706q2.5625 3.4713745E-4 4.578125 0.8756218q2.015625 0.87527084 3.4375 2.3598404q1.421875 1.4845695 2.15625 3.4377937q0.75 1.9532242 0.75 4.078224q0 0.515625 -0.03125 0.9999962q-0.015625 0.484375 -0.09375 0.79686356l-16.203125 -0.0021972656q0.125 1.2500153 0.59375 2.21883q0.484375 0.95318985 1.25 1.6407928q0.765625 0.671978 1.71875 1.0314827q0.953125 0.3595047 2.0 0.35964584q1.59375 2.1743774E-4 3.015625 -0.780838q1.421875 -0.78105927 1.9375 -2.0622368l4.609375 1.2818756q-1.15625 2.3904686 -3.703125 3.9369965q-2.53125 1.5465317 -6.0625 1.546051zm5.4375 -12.639885q-0.1875 -2.3594017 -1.734375 -3.7814865q-1.546875 -1.4220848 -3.734375 -1.4223824q-1.078125 -1.449585E-4 -2.03125 0.37472534q-0.9375 0.3748703 -1.65625 1.0622749q-0.71875 0.6874008 -1.1875 1.6404648q-0.453125 0.95306396 -0.53125 2.1249275l10.875 0.0014762878zm14.562485 12.642601q-1.515625 -2.0599365E-4 -2.84375 -0.5003853q-1.3125 -0.5001793 -2.28125 -1.4065628q-0.953125 -0.9063759 -1.5 -2.0939522q-0.53125 -1.2031975 -0.53125 -2.6406975q0 -1.484375 0.65625 -2.7342834q0.65625 -1.2655373 1.84375 -2.140377q1.1875 -0.8904648 2.8125 -1.3902435q1.640625 -0.49977493 3.609375 -0.4995079q1.390625 1.8692017E-4 2.734375 0.25037003q1.34375 0.2345581 2.390625 0.67219925l0 -1.203125q0 -2.078125 -1.1875 -3.1876602q-1.171875 -1.1251602 -3.5 -1.1254768q-1.671875 -2.2506714E-4 -3.28125 0.5933037q-1.59375 0.5935364 -3.28125 1.7651825l-1.640625 -3.406475q4.046875 -2.6713257 8.71875 -2.6706924q4.53125 6.1798096E-4 7.03125 2.2197075q2.5 2.2190895 2.5 6.4065895l0 6.53125q0 0.84375 0.3125 1.203167q0.328125 0.35941696 1.125 0.3907776l0 4.5625q-0.765625 0.156147 -1.421875 0.21855545q-0.65625 0.062412262 -1.140625 0.062347412q-1.515625 -0.047080994 -2.328125 -0.7034416q-0.796875 -0.6563606 -1.0 -1.7813873l-0.109375 -1.1562653q-1.40625 1.8435593 -3.40625 2.8120384q-2.0 0.95285416 -4.28125 0.95254517zm1.53125 -3.921669q1.359375 1.8692017E-4 2.578125 -0.48402405q1.21875 -0.48421097 1.890625 -1.2809944q0.890625 -0.6717529 0.890625 -1.5155029l0 -2.40625q-0.96875 -0.3595085 -2.09375 -0.5784111q-1.109375 -0.21889877 -2.15625 -0.21903992q-2.078125 -2.822876E-4 -3.40625 0.9370384q-1.3125 0.9373207 -1.3125 2.3748207q0 1.375 1.03125 2.2813911q1.046875 0.89076614 2.578125 0.89097214zm30.15123 3.5197182l-6.078125 -9.078949l-2.875 2.843357l0 6.234375l-5.359375 -7.247925E-4l0 -29.203127l5.359375 7.286072E-4l0 17.718748l8.390625 -9.436359l5.71875 7.7438354E-4l-7.828125 8.8739395l8.390625 12.048012l-5.71875 -7.7438354E-4zm28.248734 -4.839916l0 4.84375l-19.734375 -0.0026779175l0 -28.40625l19.359375 0.002626419l0 4.84375l-13.828125 -0.001876831l0 6.843752l11.953125 0.0016212463l0 4.484375l-11.953125 -0.0016212463l0 7.390625l14.203125 0.0019264221zm9.628723 5.2513084q-1.515625 -2.0599365E-4 -2.84375 -0.5003891q-1.3125 -0.5001755 -2.28125 -1.406559q-0.953125 -0.9063797 -1.5 -2.0939522q-0.53125 -1.2031975 -0.53125 -2.6406975q0 -1.484375 0.65625 -2.7342873q0.65625 -1.2655334 1.84375 -2.1403732q1.1875 -0.8904648 2.8125 -1.3902435q1.640625 -0.49977875 3.609375 -0.49951172q1.390625 1.9073486E-4 2.734375 0.25037384q1.34375 0.2345581 2.390625 0.67219925l0 -1.203125q0 -2.078125 -1.1875 -3.1876602q-1.171875 -1.1251602 -3.5 -1.1254768q-1.671875 -2.2888184E-4 -3.28125 0.5933037q-1.59375 0.5935364 -3.28125 1.7651825l-1.640625 -3.406475q4.046875 -2.6713257 8.71875 -2.6706924q4.53125 6.1798096E-4 7.03125 2.2197037q2.5 2.2190895 2.5 6.4065895l0 6.53125q0 0.84375 0.3125 1.2031708q0.328125 0.35941696 1.125 0.3907776l0 4.5625q-0.765625 0.15614319 -1.421875 0.21855545q-0.65625 0.062412262 -1.140625 0.062343597q-1.515625 -0.04707718 -2.328125 -0.7034378q-0.796875 -0.6563606 -1.0 -1.7813873l-0.109375 -1.1562653q-1.40625 1.8435593 -3.40625 2.8120384q-2.0 0.95285416 -4.28125 0.95254517zm1.53125 -3.921669q1.359375 1.8310547E-4 2.578125 -0.48402405q1.21875 -0.48421097 1.890625 -1.2809944q0.890625 -0.6717529 0.890625 -1.5155029l0 -2.40625q-0.96875 -0.3595085 -2.09375 -0.5784111q-1.109375 -0.21889877 -2.15625 -0.21903992q-2.078125 -2.822876E-4 -3.40625 0.9370346q-1.3125 0.9373245 -1.3125 2.3748245q0 1.375 1.03125 2.2813873q1.046875 0.89076996 2.578125 0.89097595zm24.11998 3.925148q-1.28125 -1.7166138E-4 -2.671875 -0.2034874q-1.375 -0.20331192 -2.703125 -0.5628662q-1.3125 -0.3595543 -2.515625 -0.8753395q-1.203125 -0.53141403 -2.109375 -1.1721649l2.15625 -3.6403313q4.0 2.6099205 7.71875 2.610424q1.671875 2.2506714E-4 2.625 -0.59339523q0.96875 -0.6092415 0.96875 -1.7342415q0 -1.109375 -1.140625 -1.6407814q-1.140625 -0.5470276 -3.8125 -1.1880188q-2.046875 -0.48464966 -3.484375 -1.000473q-1.4375 -0.53144455 -2.328125 -1.2034378q-0.875 -0.68761826 -1.28125 -1.5626755q-0.390625 -0.8750534 -0.390625 -2.0781784q0 -1.609375 0.640625 -2.8749123q0.640625 -1.2811623 1.78125 -2.1872597q1.140625 -0.9060936 2.671875 -1.3746376q1.546875 -0.4841652 3.34375 -0.48392105q2.25 3.0517578E-4 4.46875 0.70373154q2.21875 0.70342636 4.140625 1.8911896l-2.203125 3.3278236q-1.765625 -1.1252403 -3.328125 -1.6254501q-1.546875 -0.5002098 -3.109375 -0.50042343q-1.4375 -1.9454956E-4 -2.421875 0.56217194q-0.984375 0.5623665 -0.984375 1.7967415q0 1.078125 0.9375 1.5626259q0.9375 0.4845047 3.34375 1.078579q2.234375 0.5628052 3.8125 1.1255188q1.59375 0.56271744 2.609375 1.2816048q1.015625 0.7188873 1.46875 1.6564484q0.46875 0.93756485 0.46875 2.2656898q0 1.515625 -0.625 2.765541q-0.609375 1.2342911 -1.734375 2.0935135q-1.125 0.8592224 -2.75 1.3277512q-1.609375 0.45290756 -3.5625 0.45264053zm12.319977 3.6735497q0.71875 0.20322037 1.3125 0.28142548q0.59375 0.07820511 1.046875 0.07826996q0.515625 6.866455E-5 0.90625 -0.18737793q0.40625 -0.1718216 0.78125 -0.6561432q0.390625 -0.4687004 0.765625 -1.328022q0.375 -0.8593254 0.8125 -2.2655144l-8.3125 -20.954254l5.515625 7.4768066E-4l5.71875 16.313278l5.046875 -16.311817l5.03125 6.828308E-4l-8.828125 25.108177q-0.84375 2.4061356 -2.6875 3.7027626q-1.84375 1.2966232 -4.28125 1.2962914q-1.390625 -1.8692017E-4 -2.828125 -0.43788147l0 -4.640625z" fill-rule="nonzero"></path><path fill="#000000" fill-opacity="0.0" d="m82.75648 66.38553l212.75592 -0.12598419l0 31.90551l-212.75592 0.12598419z" fill-rule="nonzero"></path><path fill="#ffffff" d="m103.92227 90.733l0 -5.765625l-1.078125 6.3323975E-4l0 -1.640625l1.078125 -6.3323975E-4l0 -1.046875q0 -1.5625 0.765625 -2.4692078q0.765625 -0.92232513 2.03125 -0.9230728q1.03125 -6.1798096E-4 2.078125 0.49876404l-0.4375 1.6096344q-0.234375 -0.12486267 -0.5625 -0.2027893q-0.328125 -0.093559265 -0.609375 -0.09339142q-1.125 6.713867E-4 -1.125 1.5006714l0 1.125l2.0625 -0.0012283325l0 1.6406326l-2.0625 0.0012207031l0 5.765625l-2.140625 0.0012664795zm10.549133 -6.5374985q-0.984375 0.016204834 -1.75 0.3760376q-0.765625 0.35982513 -1.09375 1.0787735l0 5.078125l-2.15625 0.0012741089l0 -8.390625l1.96875 -0.0011672974l0 1.796875q0.4375 -0.8596344 1.125 -1.3912888q0.703125 -0.5316696 1.46875 -0.53211975q0.1875 -1.1444092E-4 0.265625 0.015464783q0.09375 -5.340576E-5 0.171875 0.015525818l0 1.953125zm1.1920166 6.530548l0 -8.390633l2.15625 -0.0012741089l0 8.390625l-2.15625 0.0012817383zm0 -9.546883l0 -2.140625l2.15625 -0.0012741089l0 2.140625l-2.15625 0.0012741089zm7.9542465 9.698418q-1.0 5.950928E-4 -1.828125 -0.34266663q-0.8125 -0.34326935 -1.390625 -0.936676q-0.5625 -0.5934143 -0.875 -1.3744812q-0.3125 -0.7810669 -0.3125 -1.6404419q0 -0.90625 0.296875 -1.6876755q0.3125 -0.7970581 0.875 -1.3911438q0.578125 -0.6097183 1.40625 -0.9539566q0.828125 -0.35986328 1.84375 -0.360466q1.03125 -6.1035156E-4 1.828125 0.35829163q0.8125 0.34326935 1.375 0.93668365q0.578125 0.5934067 0.875 1.3744812q0.29688263 0.7810745 0.29688263 1.6404495q0 0.203125 -0.01563263 0.40626526q0 0.1875 -0.03125 0.31251526l-6.484375 0.0038375854q0.046875 0.4843521 0.234375 0.8748627q0.203125 0.39050293 0.5 0.65595245q0.3125 0.2654419 0.6875 0.42147064q0.390625 0.14039612 0.796875 0.14015198q0.640625 -3.8146973E-4 1.203125 -0.31320953q0.578125 -0.31284332 0.78125 -0.8285904l1.84375 0.514534q-0.46875 0.95339966 -1.484375 1.5790024q-1.015625 0.6099777 -2.421875 0.6108093zm2.1875 -5.048172q-0.09375 -0.95306396 -0.703125 -1.5152054q-0.609375 -0.5621414 -1.5 -0.561615q-0.421875 2.5177002E-4 -0.8125 0.15673065q-0.375 0.14084625 -0.65625 0.4222641q-0.28125 0.26579285 -0.46875 0.6565323q-0.1875 0.3751068 -0.21875 0.8438797l4.359375 -0.0025863647zm11.303154 4.883934l-2.140625 0.0012664795l0 -4.703125q0 -1.015625 -0.359375 -1.4685364q-0.34375 -0.468544 -0.96875 -0.4681778q-0.328125 1.9836426E-4 -0.671875 0.12539673q-0.328125 0.12519836 -0.625 0.35974884q-0.28125 0.23454285 -0.53125 0.5628128q-0.234375 0.31263733 -0.34375 0.703331l0 4.890625l-2.15625 0.0012741089l0 -8.390625l1.9375 -0.0011444092l0 1.5625q0.46875 -0.7971573 1.34375 -1.2508011q0.890625 -0.45365143 1.984375 -0.45429993q0.796875 -4.6539307E-4 1.28125 0.2961197q0.5 0.28095245 0.765625 0.74954987q0.28125 0.45295715 0.375 1.0466537q0.109375 0.59368134 0.109375 1.2030563l0 5.234375zm5.319504 0.15309906q-0.875 5.187988E-4 -1.609375 -0.32717133q-0.71873474 -0.34332275 -1.2499847 -0.93675995q-0.515625 -0.5934448 -0.8125 -1.3745193q-0.296875 -0.7966995 -0.296875 -1.7029495q0 -0.921875 0.28125 -1.7032928q0.28125 -0.7814102 0.765625 -1.3754501q0.5 -0.59404755 1.1874847 -0.9225769q0.6875 -0.344162 1.5 -0.34464264q0.921875 -5.41687E-4 1.65625 0.45214844q0.75 0.4526825 1.171875 1.1711807l0 -4.78125l2.140625 -0.0012664795l0 9.21875q0 0.34375 0.125 0.4842987q0.125 0.1405487 0.453125 0.15598297l0 1.828125q-0.609375 0.10973358 -1.03125 0.10998535q-0.59375 -0.015274048 -0.921875 -0.26507568q-0.328125 -0.26543427 -0.40625 -0.7185135l-0.046875 -0.5780945q-0.46875 0.79714966 -1.25 1.203865q-0.78125 0.40670776 -1.65625 0.40722656zm0.546875 -1.8128204q0.3125 -1.8310547E-4 0.625 -0.10974884q0.328125 -0.109565735 0.59375 -0.29722595q0.28125 -0.18766785 0.5 -0.43779755q0.21875 -0.2657547 0.34375 -0.57832336l0 -2.0q-0.28125 -0.7029648 -0.90625 -1.155716q-0.609375 -0.46839142 -1.28125 -0.4679947q-0.46875 2.822876E-4 -0.890625 0.21928406q-0.40625 0.20336151 -0.703125 0.562912q-0.28125 0.35954285 -0.4375 0.8283844q-0.15625 0.45321655 -0.15625 0.95321655q0 0.53125 0.171875 0.9842758q0.1875 0.43738556 0.484375 0.7809601q0.3125 0.3279419 0.734375 0.5308151q0.4375 0.1872406 0.921875 0.18695831zm9.665268 1.806778q-0.5 2.89917E-4 -1.0625 -0.07749939q-0.546875 -0.077796936 -1.078125 -0.21810913q-0.53125 -0.1403122 -1.015625 -0.34314728q-0.46875 -0.21847534 -0.84375 -0.4682541l0.875 -1.4692688q1.59375 1.045929 3.078125 1.0450516q0.671875 -3.9672852E-4 1.046875 -0.23499298q0.390625 -0.25022888 0.390625 -0.6877289q0 -0.453125 -0.453125 -0.671608q-0.453125 -0.21848297 -1.515625 -0.46785736q-0.828125 -0.18700409 -1.40625 -0.38978577q-0.5625 -0.21842194 -0.921875 -0.4838333q-0.34375 -0.281044 -0.515625 -0.6246948q-0.15625 -0.35928345 -0.15625 -0.84365845q0 -0.640625 0.25 -1.14077q0.265625 -0.5157852 0.71875 -0.87542725q0.453125 -0.35964203 1.0625 -0.5475006q0.625 -0.20349884 1.34375 -0.20392609q0.890625 -5.264282E-4 1.78125 0.28019714q0.890625 0.28072357 1.65625 0.7646408l-0.875 1.3286438q-0.703125 -0.45270538 -1.328125 -0.6554642q-0.625 -0.20275116 -1.25 -0.20238495q-0.578125 3.4332275E-4 -0.96875 0.23495483q-0.390625 0.21897888 -0.390625 0.7189789q0 0.4375 0.375 0.62477875q0.375 0.18727875 1.34375 0.42108154q0.890625 0.23384857 1.515625 0.45222473q0.640625 0.21836853 1.046875 0.515007q0.40625 0.28100586 0.59375 0.65589905q0.1875 0.37488556 0.1875 0.90613556q0 0.609375 -0.25 1.1095276q-0.25 0.50014496 -0.703125 0.844162q-0.4375 0.3440094 -1.09375 0.5318985q-0.640625 0.17225647 -1.4375 0.17272949zm12.612396 -0.16371918l-2.140625 0.0012664795l0 -4.703125q0 -1.0 -0.375 -1.4685287q-0.359375 -0.46853638 -1.03125 -0.46813965q-0.296875 1.7547607E-4 -0.625 0.12536621q-0.3125 0.12519073 -0.59375 0.35973358q-0.28125 0.23453522 -0.53125 0.5628128q-0.234375 0.31263733 -0.34375 0.70332336l0 4.8906326l-2.15625 0.0012741089l0 -11.6875l2.15625 -0.0012817383l0 4.859375q0.453125 -0.812767 1.25 -1.25074q0.796875 -0.45359802 1.75 -0.45415497q0.8125 -4.8828125E-4 1.328125 0.28045654q0.515625 0.28094482 0.796875 0.7495346q0.296875 0.45294952 0.40625 1.0466309q0.109375 0.59368896 0.109375 1.218689l0 5.234375zm1.835144 -0.0010910034l0 -8.390625l2.15625 -0.0012741089l0 8.390625l-2.15625 0.0012741089zm0 -9.546875l0 -2.140625l2.15625 -0.0012741089l0 2.140625l-2.15625 0.0012741089zm9.063629 9.697762q-0.984375 5.79834E-4 -1.71875 -0.4364853q-0.734375 -0.43706512 -1.140625 -1.186821l0 4.875l-2.15625 0.0012741089l0 -11.796875l1.875 -0.0011138916l0 1.453125q0.46875 -0.75027466 1.203125 -1.1725845q0.734375 -0.42230988 1.703125 -0.42288208q0.84375 -5.0354004E-4 1.5625 0.34282684q0.71875 0.34332275 1.234375 0.9367676q0.53125 0.5778122 0.8125 1.3745193q0.296875 0.7810745 0.296875 1.6716995q0 0.90625 -0.265625 1.7032776q-0.265625 0.7970352 -0.765625 1.3910828q-0.484375 0.5940323 -1.171875 0.9381943q-0.671875 0.32852173 -1.46875 0.32899475zm-0.703125 -1.812088q0.484375 -2.822876E-4 0.890625 -0.20365143q0.40625 -0.21898651 0.6875 -0.56290436q0.296875 -0.35955048 0.453125 -0.828392q0.15625 -0.46884155 0.15625 -0.95321655q0 -0.53125 -0.171875 -0.9842758q-0.171875 -0.45302582 -0.484375 -0.7809677q-0.3125 -0.34355927 -0.75 -0.53079987q-0.421875 -0.20288086 -0.90625 -0.20259094q-0.3125 1.8310547E-4 -0.640625 0.10975647q-0.3125 0.093933105 -0.59375 0.29722595q-0.265625 0.18765259 -0.484375 0.4534073q-0.203125 0.25012207 -0.3125 0.54706573l0 1.96875q0.28125 0.71858215 0.875 1.2026062q0.59375 0.46839905 1.28125 0.46798706zm9.112015 1.807106q-0.5 2.975464E-4 -1.0625 -0.07749176q-0.546875 -0.077804565 -1.078125 -0.21811676q-0.53125 -0.14030457 -1.015625 -0.34314728q-0.46875 -0.21846771 -0.84375 -0.46824646l0.875 -1.4692688q1.59375 1.045929 3.078125 1.0450516q0.671875 -3.9672852E-4 1.046875 -0.23499298q0.390625 -0.2502365 0.390625 -0.6877365q0 -0.453125 -0.453125 -0.671608q-0.453125 -0.21847534 -1.515625 -0.46784973q-0.828125 -0.18701172 -1.40625 -0.3897934q-0.5625 -0.2184143 -0.921875 -0.48382568q-0.34375 -0.28105164 -0.515625 -0.6246948q-0.15625 -0.35928345 -0.15625 -0.84365845q0 -0.640625 0.25 -1.1407776q0.265625 -0.5157776 0.71875 -0.8754196q0.453125 -0.35964966 1.0625 -0.54750824q0.625 -0.20349121 1.34375 -0.20391846q0.890625 -5.264282E-4 1.78125 0.28019714q0.890625 0.28071594 1.65625 0.7646408l-0.875 1.3286438q-0.703125 -0.45270538 -1.328125 -0.6554642q-0.625 -0.20275116 -1.25 -0.20238495q-0.578125 3.4332275E-4 -0.96875 0.2349472q-0.390625 0.21898651 -0.390625 0.7189865q0 0.4375 0.375 0.6247711q0.375 0.18727875 1.34375 0.42108154q0.890625 0.23384857 1.515625 0.45223236q0.640625 0.21836853 1.046875 0.5149994q0.40625 0.2810135 0.59375 0.65589905q0.1875 0.3748932 0.1875 0.9061432q0 0.609375 -0.25 1.10952q-0.25 0.5001526 -0.703125 0.8441696q-0.4375 0.3440094 -1.09375 0.5318985q-0.640625 0.17224884 -1.4375 0.17272186zm21.670776 -0.16908264l-2.140625 0.0012664795l0 -4.703125q0 -1.015625 -0.359375 -1.4685364q-0.34375 -0.468544 -0.953125 -0.46818542q-0.625 3.7384033E-4 -1.1875 0.5007019q-0.5625 0.4847107 -0.796875 1.266098l0 4.875l-2.140625 0.0012664795l0 -4.703125q0 -1.015625 -0.34375 -1.468544q-0.34375 -0.468544 -0.953125 -0.46818542q-0.625 3.6621094E-4 -1.203125 0.48508453q-0.5625 0.4690857 -0.796875 1.266098l0 4.890625l-2.15625 0.0012817383l0 -8.390633l1.9375 -0.0011444092l0 1.5625q0.46875 -0.81277466 1.265625 -1.2507477q0.8125 -0.45360565 1.859375 -0.45422363q1.0625 -6.3323975E-4 1.625 0.51465607q0.5625 0.51529694 0.75 1.2651825q0.5 -0.85967255 1.28125 -1.3132553q0.796875 -0.46922302 1.796875 -0.46981812q0.765625 -4.5013428E-4 1.265625 0.29612732q0.5 0.28095245 0.765625 0.74954987q0.28125 0.45295715 0.375 1.0466537q0.109375 0.59368134 0.109375 1.2030563l0 5.234375zm4.145279 0.15380096q-0.609375 3.5858154E-4 -1.140625 -0.18682861q-0.53125 -0.2028122 -0.921875 -0.5619507q-0.375 -0.35915375 -0.59375 -0.84339905q-0.203125 -0.48426056 -0.203125 -1.0623856q0 -0.59375 0.25 -1.093895q0.265625 -0.5001602 0.734375 -0.8441849q0.484375 -0.35966492 1.140625 -0.563179q0.65625 -0.2035141 1.4375 -0.20397186q0.5625 -3.3569336E-4 1.09375 0.0931015q0.53125 0.093437195 0.953125 0.28068542l0 -0.484375q0 -0.828125 -0.46875 -1.2809753q-0.46875 -0.4528427 -1.40625 -0.4522934q-0.671875 4.043579E-4 -1.3125 0.2507782q-0.640625 0.23475647 -1.3125 0.7039032l-0.65625 -1.3589859q1.625 -1.0790863 3.5 -1.0802002q1.796875 -0.0010604858 2.796875 0.8889694q1.0 0.89003754 1.0 2.5619125l0 2.609375q0 0.34375 0.125 0.4842987q0.140625 0.14054108 0.453125 0.15598297l0 1.828125q-0.296875 0.062675476 -0.5625 0.07846069q-0.265625 0.031402588 -0.453125 0.03151703q-0.609375 -0.015266418 -0.9375 -0.28069305q-0.3125 -0.2654419 -0.390625 -0.7028961l-0.046875 -0.46871948q-0.5625 0.73470306 -1.375 1.1258087q-0.796875 0.37547302 -1.703125 0.3760147zm0.609375 -1.5628662q0.546875 -3.2043457E-4 1.03125 -0.18811035q0.484375 -0.20340729 0.75 -0.5160675q0.359375 -0.28146362 0.359375 -0.6095886l0 -0.96875q-0.390625 -0.14039612 -0.84375 -0.21825409q-0.4375 -0.0934906 -0.859375 -0.09323883q-0.828125 4.8828125E-4 -1.359375 0.37580872q-0.515625 0.37530518 -0.515625 0.9534302q0 0.546875 0.40625 0.90600586q0.421875 0.35912323 1.03125 0.35876465zm9.810516 1.556694q-0.875 5.187988E-4 -1.609375 -0.32717133q-0.71875 -0.34333038 -1.25 -0.93675995q-0.515625 -0.5934448 -0.8125 -1.3745193q-0.296875 -0.7966995 -0.296875 -1.7029495q0 -0.921875 0.28125 -1.7032928q0.28125 -0.78141785 0.765625 -1.3754578q0.5 -0.5940399 1.1875 -0.9225769q0.6875 -0.34415436 1.5 -0.344635q0.921875 -5.493164E-4 1.65625 0.4521408q0.75 0.4526825 1.171875 1.1711807l0 -4.78125l2.140625 -0.0012664795l0 9.21875q0 0.34375 0.125 0.48430634q0.125 0.1405487 0.453125 0.15597534l0 1.828125q-0.609375 0.10974121 -1.03125 0.10998535q-0.59375 -0.015266418 -0.921875 -0.26507568q-0.328125 -0.26543427 -0.40625 -0.71850586l-0.046875 -0.5781021q-0.46875 0.7971573 -1.25 1.203865q-0.78125 0.4067154 -1.65625 0.4072342zm0.546875 -1.8128281q0.3125 -1.8310547E-4 0.625 -0.10974121q0.328125 -0.109573364 0.59375 -0.29722595q0.28125 -0.18766785 0.5 -0.43779755q0.21875 -0.2657547 0.34375 -0.578331l0 -2.0q-0.28125 -0.70295715 -0.90625 -1.155716q-0.609375 -0.4683838 -1.28125 -0.46798706q-0.46875 2.746582E-4 -0.890625 0.21927643q-0.40625 0.20336914 -0.703125 0.5629196q-0.28125 0.35953522 -0.4375 0.8283844q-0.15625 0.45321655 -0.15625 0.95321655q0 0.53125 0.171875 0.9842682q0.1875 0.4373932 0.484375 0.7809677q0.3125 0.3279419 0.734375 0.5308151q0.4375 0.1872406 0.921875 0.18695068zm10.259003 1.806427q-1.0 5.950928E-4 -1.828125 -0.34266663q-0.8125 -0.34326935 -1.390625 -0.936676q-0.5625 -0.5934143 -0.875 -1.3744812q-0.3125 -0.7810669 -0.3125 -1.6404419q0 -0.90625 0.296875 -1.6876755q0.3125 -0.7970581 0.875 -1.3911438q0.578125 -0.6097183 1.40625 -0.9539566q0.828125 -0.3598709 1.84375 -0.360466q1.03125 -6.1035156E-4 1.828125 0.35829163q0.8125 0.34326935 1.375 0.93668365q0.578125 0.5934067 0.875 1.3744812q0.296875 0.7810745 0.296875 1.6404495q0 0.203125 -0.015625 0.40625763q0 0.1875 -0.03125 0.3125229l-6.484375 0.0038375854q0.046875 0.4843521 0.234375 0.8748627q0.203125 0.39050293 0.5 0.65595245q0.3125 0.2654419 0.6875 0.42147064q0.390625 0.14038849 0.796875 0.14015198q0.640625 -3.8146973E-4 1.203125 -0.31320953q0.578125 -0.31284332 0.78125 -0.8285904l1.84375 0.514534q-0.46875 0.95339966 -1.484375 1.5790024q-1.015625 0.6099777 -2.421875 0.6108093zm2.1875 -5.048172q-0.09375 -0.9530716 -0.703125 -1.5152054q-0.609375 -0.5621414 -1.5 -0.561615q-0.421875 2.5177002E-4 -0.8125 0.15673065q-0.375 0.14084625 -0.65625 0.4222641q-0.28125 0.26579285 -0.46875 0.6565323q-0.1875 0.3751068 -0.21875 0.8438797l4.359375 -0.0025863647zm11.236542 5.040222q-1.0 5.950928E-4 -1.828125 -0.34266663q-0.8125 -0.34326935 -1.390625 -0.936676q-0.5625 -0.5934143 -0.875 -1.3744812q-0.3125 -0.7810669 -0.3125 -1.6404419q0 -0.90625 0.296875 -1.6876755q0.3125 -0.7970581 0.875 -1.3911438q0.578125 -0.6097183 1.40625 -0.9539566q0.828125 -0.35986328 1.84375 -0.360466q1.03125 -6.1035156E-4 1.828125 0.35829163q0.8125 0.34326935 1.375 0.93668365q0.578125 0.5934067 0.875 1.3744812q0.296875 0.7810745 0.296875 1.6404495q0 0.203125 -0.015625 0.40626526q0 0.1875 -0.03125 0.31251526l-6.484375 0.0038375854q0.046875 0.4843521 0.234375 0.8748627q0.203125 0.39050293 0.5 0.65595245q0.3125 0.2654419 0.6875 0.42147064q0.390625 0.14039612 0.796875 0.14015198q0.640625 -3.8146973E-4 1.203125 -0.31320953q0.578125 -0.31284332 0.78125 -0.8285904l1.84375 0.514534q-0.46875 0.95339966 -1.484375 1.5790024q-1.015625 0.6099777 -2.421875 0.6108093zm2.1875 -5.048172q-0.09375 -0.95306396 -0.703125 -1.5152054q-0.609375 -0.5621414 -1.5 -0.561615q-0.421875 2.5177002E-4 -0.8125 0.15673065q-0.375 0.14084625 -0.65625 0.4222641q-0.28125 0.26579285 -0.46875 0.6565323q-0.1875 0.3751068 -0.21875 0.8438797l4.359375 -0.0025863647zm5.818756 5.043434q-0.609375 3.5858154E-4 -1.140625 -0.18682861q-0.53125 -0.20280457 -0.921875 -0.5619507q-0.375 -0.35915375 -0.59375 -0.84339905q-0.203125 -0.48425293 -0.203125 -1.0623779q0 -0.59375 0.25 -1.0939026q0.265625 -0.5001526 0.734375 -0.8441849q0.484375 -0.3596573 1.140625 -0.5631714q0.65625 -0.2035141 1.4375 -0.20397949q0.5625 -3.3569336E-4 1.09375 0.0931015q0.53125 0.093437195 0.953125 0.28068542l0 -0.484375q0 -0.828125 -0.46875 -1.2809677q-0.46875 -0.45285034 -1.40625 -0.4522934q-0.671875 3.9672852E-4 -1.3125 0.2507782q-0.640625 0.23474884 -1.3125 0.70389557l-0.65625 -1.3589859q1.625 -1.0790863 3.5 -1.0801926q1.796875 -0.0010681152 2.7968597 0.8889694q1.0 0.8900299 1.0 2.561905l0 2.609375q0 0.34375 0.125 0.4842987q0.140625 0.1405487 0.453125 0.15598297l0 1.828125q-0.296875 0.062675476 -0.5625 0.07846069q-0.265625 0.031410217 -0.453125 0.03151703q-0.609375 -0.015266418 -0.9375 -0.28069305q-0.3125 -0.2654419 -0.390625 -0.7028961l-0.046875 -0.46871948q-0.56248474 0.73470306 -1.3749847 1.1258163q-0.796875 0.3754654 -1.703125 0.37600708zm0.609375 -1.5628662q0.546875 -3.2043457E-4 1.03125 -0.18811035q0.484375 -0.20340729 0.75 -0.5160675q0.359375 -0.28146362 0.359375 -0.6095886l0 -0.96875q-0.390625 -0.14038849 -0.84375 -0.21824646q-0.4375 -0.0934906 -0.859375 -0.09324646q-0.828125 4.9591064E-4 -1.359375 0.37580872q-0.515625 0.37530518 -0.515625 0.9534302q0 0.546875 0.40625 0.90600586q0.421875 0.35913086 1.03125 0.35876465zm9.638626 1.5567932q-0.5 2.975464E-4 -1.0625 -0.07749176q-0.546875 -0.077804565 -1.078125 -0.21811676q-0.53125 -0.14030457 -1.015625 -0.34314728q-0.46875 -0.21846771 -0.84375 -0.46824646l0.875 -1.4692688q1.59375 1.045929 3.078125 1.0450516q0.671875 -3.9672852E-4 1.046875 -0.23499298q0.390625 -0.2502365 0.390625 -0.6877365q0 -0.453125 -0.453125 -0.67160034q-0.453125 -0.21848297 -1.515625 -0.46785736q-0.828125 -0.18701172 -1.40625 -0.3897934q-0.5625 -0.2184143 -0.921875 -0.48382568q-0.34375 -0.281044 -0.515625 -0.6246948q-0.15625 -0.35928345 -0.15625 -0.84365845q0 -0.640625 0.25 -1.14077q0.265625 -0.5157852 0.71875 -0.87542725q0.453125 -0.35964203 1.0625 -0.54750824q0.625 -0.20349121 1.34375 -0.20391846q0.890625 -5.264282E-4 1.78125 0.28019714q0.890625 0.28072357 1.65625 0.7646408l-0.875 1.3286438q-0.703125 -0.45270538 -1.328125 -0.6554642q-0.625 -0.20275116 -1.25 -0.20238495q-0.578125 3.4332275E-4 -0.96875 0.2349472q-0.390625 0.21898651 -0.390625 0.7189865q0 0.4375 0.375 0.62477875q0.375 0.18727875 1.34375 0.4210739q0.890625 0.23384857 1.515625 0.45223236q0.640625 0.21836853 1.046875 0.5149994q0.40625 0.2810135 0.59375 0.65589905q0.1875 0.3748932 0.1875 0.9061432q0 0.609375 -0.25 1.10952q-0.25 0.5001526 -0.703125 0.8441696q-0.4375 0.3440094 -1.09375 0.5318985q-0.640625 0.17225647 -1.4375 0.17272186zm4.9405212 1.465828q0.28125 0.09358215 0.515625 0.124694824q0.25 0.031105042 0.421875 0.03099823q0.203125 -1.2207031E-4 0.359375 -0.07833862q0.171875 -0.07822418 0.3125 -0.2658081q0.15625 -0.18759155 0.3125 -0.5314331q0.15625 -0.34384155 0.328125 -0.90644836l-3.328125 -8.388657l2.203125 -0.0013046265l2.296875 6.529892l2.015625 -6.53244l2.015625 -0.0011978149l-3.546875 10.048981q-0.328125 0.96894073 -1.0625 1.4850006q-0.734375 0.5160599 -1.71875 0.51664734q-0.5625 3.2806396E-4 -1.125 -0.17121124l0 -1.859375z" fill-rule="nonzero"></path><path fill="#56d7d4" d="m26.248861 44.474308l0 0c0 -5.6446114 4.575863 -10.220474 10.220472 -10.220474l0 0c2.71064 0 5.310257 1.0767975 7.226967 2.9935074c1.9167099 1.9167099 2.9935074 4.516327 2.9935074 7.226967l0 0c0 5.6446114 -4.575863 10.22047 -10.220474 10.22047l0 0c-5.6446095 0 -10.220472 -4.575859 -10.220472 -10.22047z" fill-rule="nonzero"></path><path stroke="#7381ff" stroke-width="4.0" stroke-linejoin="round" stroke-linecap="butt" d="m26.248861 44.474308l0 0c0 -5.6446114 4.575863 -10.220474 10.220472 -10.220474l0 0c2.71064 0 5.310257 1.0767975 7.226967 2.9935074c1.9167099 1.9167099 2.9935074 4.516327 2.9935074 7.226967l0 0c0 5.6446114 -4.575863 10.22047 -10.220474 10.22047l0 0c-5.6446095 0 -10.220472 -4.575859 -10.220472 -10.22047z" fill-rule="nonzero"></path><path fill="#56d7d4" d="m53.537216 33.10708l0 0c0 -5.6446114 4.575863 -10.220472 10.220474 -10.220472l0 0c2.71064 0 5.310257 1.0767956 7.226967 2.9935074c1.9167099 1.9167099 2.9935074 4.516327 2.9935074 7.226965l0 0c0 5.6446114 -4.5758667 10.220474 -10.220474 10.220474l0 0c-5.6446114 0 -10.220474 -4.575863 -10.220474 -10.220474z" fill-rule="nonzero"></path><path stroke="#ffdaf7" stroke-width="4.0" stroke-linejoin="round" stroke-linecap="butt" d="m53.537216 33.10708l0 0c0 -5.6446114 4.575863 -10.220472 10.220474 -10.220472l0 0c2.71064 0 5.310257 1.0767956 7.226967 2.9935074c1.9167099 1.9167099 2.9935074 4.516327 2.9935074 7.226965l0 0c0 5.6446114 -4.5758667 10.220474 -10.220474 10.220474l0 0c-5.6446114 0 -10.220474 -4.575863 -10.220474 -10.220474z" fill-rule="nonzero"></path><path fill="#56d7d4" d="m305.72067 37.6168l0 0c0 -6.401285 5.161072 -11.590551 11.527557 -11.590551l0 0c3.057312 0 5.98938 1.2211437 8.151215 3.3947945c2.1618347 2.1736488 3.3763428 5.121752 3.3763428 8.195757l0 0c0 6.4012833 -5.1610413 11.590549 -11.527557 11.590549l0 0c-6.3664856 0 -11.527557 -5.189266 -11.527557 -11.590549z" fill-rule="nonzero"></path><path stroke="#e177bc" stroke-width="4.0" stroke-linejoin="round" stroke-linecap="butt" d="m305.72067 37.6168l0 0c0 -6.401285 5.161072 -11.590551 11.527557 -11.590551l0 0c3.057312 0 5.98938 1.2211437 8.151215 3.3947945c2.1618347 2.1736488 3.3763428 5.121752 3.3763428 8.195757l0 0c0 6.4012833 -5.1610413 11.590549 -11.527557 11.590549l0 0c-6.3664856 0 -11.527557 -5.189266 -11.527557 -11.590549z" fill-rule="nonzero"></path><path fill="#000000" fill-opacity="0.0" d="m83.60556 70.46427l212.75592 -0.12598419" fill-rule="nonzero"></path><path stroke="#ffffff" stroke-width="3.0" stroke-linejoin="round" stroke-linecap="butt" d="m83.60556 70.46427l212.75592 -0.12598419" fill-rule="nonzero"></path></g></svg>

